<svg width="25" height="25" viewBox="0 0 25 25" fill="none" xmlns="http://www.w3.org/2000/svg">
<path d="M10.284 13.1589C10.284 13.3814 10.218 13.5989 10.0944 13.7839C9.97081 13.9689 9.79511 14.1131 9.58955 14.1983C9.38398 14.2834 9.15778 14.3057 8.93955 14.2623C8.72132 14.2189 8.52087 14.1117 8.36353 13.9544C8.2062 13.7971 8.09905 13.5966 8.05564 13.3784C8.01223 13.1602 8.03451 12.934 8.11966 12.7284C8.20481 12.5228 8.34901 12.3471 8.53401 12.2235C8.71902 12.0999 8.93652 12.0339 9.15903 12.0339C9.4574 12.0339 9.74354 12.1524 9.95452 12.3634C10.1655 12.5744 10.284 12.8605 10.284 13.1589ZM15.909 12.0339C15.6865 12.0339 15.469 12.0999 15.284 12.2235C15.099 12.3471 14.9548 12.5228 14.8697 12.7284C14.7845 12.934 14.7622 13.1602 14.8056 13.3784C14.8491 13.5966 14.9562 13.7971 15.1135 13.9544C15.2709 14.1117 15.4713 14.2189 15.6896 14.2623C15.9078 14.3057 16.134 14.2834 16.3395 14.1983C16.5451 14.1131 16.7208 13.9689 16.8444 13.7839C16.968 13.5989 17.034 13.3814 17.034 13.1589C17.034 12.8605 16.9155 12.5744 16.7045 12.3634C16.4935 12.1524 16.2074 12.0339 15.909 12.0339ZM22.8887 18.1183L16.6075 20.9036C16.4186 20.9876 16.2146 21.032 16.0079 21.0342C15.8012 21.0364 15.5962 20.9964 15.4056 20.9165C15.215 20.8366 15.0427 20.7185 14.8994 20.5696C14.7561 20.4207 14.6447 20.244 14.5722 20.0505L13.8118 17.988C13.3918 18.0161 12.9659 18.0305 12.534 18.0311C12.1022 18.0317 11.6762 18.0174 11.2562 17.988L10.4959 20.0505C10.4232 20.2439 10.3118 20.4205 10.1685 20.5694C10.0251 20.7182 9.85286 20.8362 9.66227 20.9161C9.47168 20.996 9.26678 21.0361 9.06014 21.0339C8.8535 21.0318 8.64948 20.9874 8.46059 20.9036L2.17934 18.1183C1.85514 17.9765 1.5918 17.7243 1.43624 17.4065C1.28069 17.0887 1.24302 16.726 1.32996 16.383L4.09653 5.47142C4.16954 5.18764 4.32372 4.93132 4.54019 4.73383C4.75665 4.53635 5.02601 4.40628 5.31528 4.35954L8.6959 3.8036C9.06858 3.74366 9.45024 3.82447 9.76664 4.03033C10.083 4.23618 10.3116 4.55235 10.4078 4.91735L10.7134 6.1211C11.309 6.06298 11.9159 6.03392 12.534 6.03392C13.1522 6.03392 13.7584 6.06298 14.3528 6.1211L14.6584 4.91735C14.7544 4.55224 14.9829 4.23593 15.2994 4.03005C15.6158 3.82417 15.9976 3.74344 16.3703 3.8036L19.7528 4.35954C20.042 4.40628 20.3114 4.53635 20.5279 4.73383C20.7443 4.93132 20.8985 5.18764 20.9715 5.47142L23.74 16.382C23.827 16.7254 23.7892 17.0885 23.6333 17.4065C23.4774 17.7246 23.2135 17.9768 22.8887 18.1183ZM22.284 16.7477L19.5156 5.84642C19.5156 5.84642 19.5156 5.84642 19.5081 5.84642L16.1275 5.28392C16.125 5.28252 16.1223 5.28178 16.1195 5.28178C16.1167 5.28178 16.1139 5.28252 16.1115 5.28392L15.8462 6.32829C16.315 6.41642 16.7837 6.52141 17.2365 6.64892C17.415 6.69442 17.5706 6.80404 17.6735 6.95687C17.7763 7.10971 17.8194 7.29506 17.7943 7.47758C17.7693 7.6601 17.6779 7.82702 17.5377 7.94652C17.3975 8.06601 17.2182 8.12971 17.034 8.12548C16.9656 8.12528 16.8974 8.11582 16.8315 8.09735C15.4309 7.71728 13.9853 7.52776 12.534 7.53392C11.0828 7.52745 9.63724 7.71666 8.23653 8.09642C8.14084 8.126 8.0402 8.13611 7.94054 8.12617C7.84088 8.11623 7.74422 8.08642 7.65627 8.03852C7.56832 7.99061 7.49085 7.92557 7.42843 7.84724C7.36602 7.76891 7.31993 7.67888 7.29288 7.58245C7.26583 7.48601 7.25837 7.38514 7.27093 7.28578C7.2835 7.18642 7.31584 7.09058 7.36604 7.00391C7.41625 6.91725 7.4833 6.84152 7.56325 6.7812C7.6432 6.72087 7.73442 6.67717 7.83153 6.65267C8.2834 6.52517 8.7484 6.42017 9.2209 6.33204L8.95559 5.28392C8.95559 5.28392 8.95559 5.28392 8.94434 5.28392L5.55996 5.83985C5.5572 5.83909 5.55429 5.83909 5.55153 5.83985L2.78403 16.7524L9.06528 19.5339C9.06844 19.5356 9.07199 19.5365 9.07559 19.5365C9.07919 19.5365 9.08274 19.5356 9.0859 19.5339L9.72153 17.8202C9.08467 17.7227 8.45418 17.5875 7.8334 17.4152C7.6485 17.3561 7.49371 17.2276 7.40156 17.0568C7.30942 16.8859 7.2871 16.686 7.3393 16.499C7.39151 16.3121 7.51416 16.1526 7.68149 16.0543C7.84881 15.9559 8.04777 15.9262 8.23653 15.9714C9.63715 16.3516 11.0827 16.5408 12.534 16.5339C13.9853 16.5408 15.4309 16.3516 16.8315 15.9714C17.0231 15.9177 17.2282 15.9423 17.4016 16.0398C17.5751 16.1373 17.7027 16.2997 17.7564 16.4913C17.8101 16.6828 17.7855 16.8879 17.688 17.0613C17.5905 17.2348 17.4281 17.3624 17.2365 17.4161C16.6151 17.5882 15.984 17.7231 15.3465 17.8202L15.9793 19.5339C15.9824 19.5356 15.9857 19.5364 15.9892 19.5364C15.9926 19.5364 15.996 19.5356 15.999 19.5339L22.284 16.7477Z" fill="url(#paint0_linear_223_665)"/>
<defs>
<linearGradient id="paint0_linear_223_665" x1="6.49252" y1="3.60205" x2="23.9925" y2="20.602" gradientUnits="userSpaceOnUse">
<stop stop-color="#06BF28"/>
<stop offset="1" stop-color="#035913"/>
</linearGradient>
</defs>
</svg>
