<svg width="25" height="25" viewBox="0 0 25 25" fill="none" xmlns="http://www.w3.org/2000/svg">
<path d="M20.0339 3.03394H5.03394C4.63611 3.03394 4.25458 3.19197 3.97328 3.47328C3.69197 3.75458 3.53394 4.13611 3.53394 4.53394V18.0339C3.53394 18.4318 3.69197 18.8133 3.97328 19.0946C4.25458 19.3759 4.63611 19.5339 5.03394 19.5339H6.53394V22.5339C6.53388 22.6765 6.57446 22.8161 6.65091 22.9364C6.72737 23.0568 6.83653 23.1528 6.96561 23.2133C7.09469 23.2738 7.23834 23.2963 7.37973 23.2781C7.52113 23.2599 7.6544 23.2017 7.76394 23.1105L12.0558 19.5339H16.0121C16.3632 19.534 16.7033 19.411 16.973 19.1861L20.9939 15.8346C21.1632 15.6941 21.2994 15.518 21.3928 15.3189C21.4861 15.1197 21.5343 14.9023 21.5339 14.6824V4.53394C21.5339 4.13611 21.3759 3.75458 21.0946 3.47328C20.8133 3.19197 20.4318 3.03394 20.0339 3.03394ZM20.0339 14.6824L16.0121 18.0339H11.7839C11.6086 18.0339 11.4387 18.0952 11.3039 18.2074L8.03394 20.9327V18.7839C8.03394 18.585 7.95492 18.3943 7.81427 18.2536C7.67361 18.113 7.48285 18.0339 7.28394 18.0339H5.03394V4.53394H20.0339V14.6824ZM15.5339 12.7839V8.28394C15.5339 8.08502 15.613 7.89426 15.7536 7.75361C15.8943 7.61295 16.085 7.53394 16.2839 7.53394C16.4828 7.53394 16.6736 7.61295 16.8143 7.75361C16.9549 7.89426 17.0339 8.08502 17.0339 8.28394V12.7839C17.0339 12.9828 16.9549 13.1736 16.8143 13.3143C16.6736 13.4549 16.4828 13.5339 16.2839 13.5339C16.085 13.5339 15.8943 13.4549 15.7536 13.3143C15.613 13.1736 15.5339 12.9828 15.5339 12.7839ZM11.0339 12.7839V8.28394C11.0339 8.08502 11.113 7.89426 11.2536 7.75361C11.3943 7.61295 11.585 7.53394 11.7839 7.53394C11.9828 7.53394 12.1736 7.61295 12.3143 7.75361C12.4549 7.89426 12.5339 8.08502 12.5339 8.28394V12.7839C12.5339 12.9828 12.4549 13.1736 12.3143 13.3143C12.1736 13.4549 11.9828 13.5339 11.7839 13.5339C11.585 13.5339 11.3943 13.4549 11.2536 13.3143C11.113 13.1736 11.0339 12.9828 11.0339 12.7839Z" fill="url(#paint0_linear_223_668)"/>
<defs>
<linearGradient id="paint0_linear_223_668" x1="3.56976" y1="3.08936" x2="21.5698" y2="23.0894" gradientUnits="userSpaceOnUse">
<stop stop-color="#06BF28"/>
<stop offset="1" stop-color="#035913"/>
</linearGradient>
</defs>
</svg>
